<svg width="133" height="133" viewBox="0 0 133 133" fill="none" xmlns="http://www.w3.org/2000/svg">
<rect x="36.7777" y="45.3148" width="6.58333" height="6.58333" fill="#FFC400"/>
<rect width="6.58333" height="6.58333" transform="matrix(1 0 0 -1 36.7777 87.7407)" fill="#FFC400"/>
<rect x="47.0186" y="51.1667" width="5.12037" height="4.38889" fill="#FFC400"/>
<rect width="5.12037" height="4.38889" transform="matrix(1 0 0 -1 47.0186 81.8889)" fill="#FFC400"/>
<rect x="55.0648" y="45.3148" width="4.38889" height="4.38889" fill="#FFC400"/>
<rect width="4.38889" height="4.38889" transform="matrix(1 0 0 -1 55.0648 87.7407)" fill="#FFC400"/>
<rect width="4.38889" height="4.38889" transform="matrix(0.827413 0.561593 0.561593 -0.827413 59.4537 65.0388)" fill="#FFC400"/>
<rect x="52.1389" y="40.1944" width="2.92593" height="2.92593" fill="#FFC400"/>
<rect width="2.92593" height="2.92593" transform="matrix(1 0 0 -1 52.1389 92.8611)" fill="#FFC400"/>
<rect x="28" y="33.6111" width="9.50926" height="9.50926" fill="#FFC400"/>
<rect width="9.50926" height="9.50926" transform="matrix(1 0 0 -1 28 99.4444)" fill="#FFC400"/>
<rect x="32.3889" y="16.787" width="13.8981" height="13.8981" fill="#FFC400"/>
<rect width="13.8981" height="13.8981" transform="matrix(1 0 0 -1 32.3889 116.268)" fill="#FFC400"/>
<rect x="48.4814" y="2.88889" width="19.0185" height="19.0185" fill="#FFC400"/>
<rect width="19.0185" height="19.0185" transform="matrix(1 0 0 -1 48.4814 130.167)" fill="#FFC400"/>
<rect x="69.6945" y="8.74072" width="22.6759" height="22.6759" fill="#FFC400"/>
<rect width="22.6759" height="22.6759" transform="matrix(1 0 0 -1 69.6945 124.315)" fill="#FFC400"/>
<rect width="10.2407" height="10.2407" transform="matrix(0.969231 0.246154 0.246154 -0.969231 75.175 70.2302)" fill="#FFC400"/>
<rect width="6.58333" height="6.58333" transform="matrix(0.886236 -0.463235 -0.463235 -0.886236 68.3551 71.7544)" fill="#FFC400"/>
<rect x="81.3981" y="33.6111" width="25.6019" height="25.6019" fill="#FFC400"/>
<rect width="25.6019" height="25.6019" transform="matrix(1 0 0 -1 81.3981 99.4444)" fill="#FFC400"/>
</svg>
