<svg width="320" height="82" viewBox="0 0 320 82" fill="none" xmlns="http://www.w3.org/2000/svg">
<path d="M69.975 31.3C69.975 27.9 71.425 25.225 74.325 23.275C77.275 21.275 80.55 20.275 84.15 20.275C87.75 20.275 90.525 20.8 92.475 21.85C94.475 22.85 95.475 24.05 95.475 25.45C95.475 26.85 94.5 27.875 92.55 28.525C92.2 27.725 91.225 26.975 89.625 26.275C88.075 25.575 86.15 25.225 83.85 25.225C81.55 25.225 79.65 25.675 78.15 26.575C76.7 27.425 75.975 28.65 75.975 30.25C75.975 31.8 76.525 33 77.625 33.85C78.725 34.7 81.3 35.6 85.35 36.55C89.45 37.45 92.575 38.775 94.725 40.525C96.875 42.275 97.95 44.725 97.95 47.875C97.95 51.025 96.5 53.6 93.6 55.6C90.7 57.55 87.125 58.525 82.875 58.525C78.675 58.525 75.3 58 72.75 56.95C70.25 55.85 69 54.425 69 52.675C69 50.925 69.825 49.65 71.475 48.85C72.175 50.2 73.525 51.35 75.525 52.3C77.525 53.25 80.025 53.725 83.025 53.725C86.025 53.725 88.3 53.175 89.85 52.075C91.45 50.975 92.25 49.625 92.25 48.025C92.25 46.375 91.525 45.1 90.075 44.2C88.675 43.25 85.9 42.325 81.75 41.425C77.65 40.525 74.65 39.25 72.75 37.6C70.9 35.9 69.975 33.8 69.975 31.3ZM109.042 5.425H109.567C111.467 5.425 112.417 6.375 112.417 8.275V28.525C113.267 26.325 114.717 24.45 116.767 22.9C118.817 21.35 121.217 20.575 123.967 20.575C128.167 20.575 131.517 21.775 134.017 24.175C136.517 26.525 137.767 30.35 137.767 35.65V55.15C137.767 56.15 137.542 56.875 137.092 57.325C136.642 57.775 135.917 58 134.917 58H134.317C132.467 58 131.542 57.05 131.542 55.15V36.025C131.542 29.075 128.542 25.6 122.542 25.6C119.392 25.6 116.917 26.9 115.117 29.5C113.367 32.1 112.492 35.375 112.492 39.325V55.15C112.492 57.05 111.517 58 109.567 58H109.042C108.042 58 107.317 57.775 106.867 57.325C106.417 56.875 106.192 56.15 106.192 55.15V8.275C106.192 6.375 107.142 5.425 109.042 5.425ZM161.651 20.425C172.251 20.425 177.551 25.35 177.551 35.2V50.05C177.551 52.8 178.601 54.55 180.701 55.3C179.951 57.2 178.551 58.15 176.501 58.15C175.001 58.15 173.801 57.625 172.901 56.575C172.051 55.475 171.626 54.05 171.626 52.3C168.476 56.5 164.401 58.6 159.401 58.6C155.351 58.6 152.151 57.575 149.801 55.525C147.501 53.425 146.351 50.625 146.351 47.125C146.351 43.575 147.701 40.7 150.401 38.5C153.151 36.3 156.851 35.2 161.501 35.2C164.301 35.2 166.651 35.5 168.551 36.1C170.101 36.65 171.026 37 171.326 37.15V33.85C171.326 30.8 170.551 28.65 169.001 27.4C167.451 26.1 165.101 25.45 161.951 25.45C157.501 25.45 154.051 27.15 151.601 30.55C149.501 30.25 148.451 29.275 148.451 27.625C148.451 25.725 149.751 24.05 152.351 22.6C154.951 21.15 158.051 20.425 161.651 20.425ZM171.326 41.95C168.176 40.55 165.076 39.85 162.026 39.85C158.976 39.85 156.626 40.5 154.976 41.8C153.326 43.1 152.501 44.8 152.501 46.9C152.501 48.95 153.201 50.6 154.601 51.85C156.051 53.05 158.151 53.65 160.901 53.65C163.701 53.65 166.126 52.65 168.176 50.65C170.276 48.65 171.326 46.225 171.326 43.375V41.95ZM191.889 5.425H192.414C194.314 5.425 195.264 6.35 195.264 8.2V55.15C195.264 57.05 194.314 58 192.414 58H191.889C190.839 58 190.089 57.775 189.639 57.325C189.239 56.875 189.039 56.15 189.039 55.15V8.2C189.039 7.2 189.239 6.5 189.639 6.1C190.089 5.65 190.839 5.425 191.889 5.425ZM209.68 25.375C213.23 22.025 217.58 20.35 222.73 20.35C227.88 20.35 232.23 22.025 235.78 25.375C239.33 28.725 241.105 33.45 241.105 39.55C241.105 45.65 239.33 50.35 235.78 53.65C232.23 56.95 227.88 58.6 222.73 58.6C217.58 58.6 213.23 56.95 209.68 53.65C206.13 50.35 204.355 45.65 204.355 39.55C204.355 33.45 206.13 28.725 209.68 25.375ZM231.355 29.2C229.155 26.75 226.28 25.525 222.73 25.525C219.18 25.525 216.28 26.75 214.03 29.2C211.83 31.6 210.73 35.05 210.73 39.55C210.73 44 211.83 47.45 214.03 49.9C216.28 52.3 219.18 53.5 222.73 53.5C226.28 53.5 229.155 52.3 231.355 49.9C233.605 47.45 234.73 44 234.73 39.55C234.73 35.05 233.605 31.6 231.355 29.2ZM248.246 31.3C248.246 27.9 249.696 25.225 252.596 23.275C255.546 21.275 258.821 20.275 262.421 20.275C266.021 20.275 268.796 20.8 270.746 21.85C272.746 22.85 273.746 24.05 273.746 25.45C273.746 26.85 272.771 27.875 270.821 28.525C270.471 27.725 269.496 26.975 267.896 26.275C266.346 25.575 264.421 25.225 262.121 25.225C259.821 25.225 257.921 25.675 256.421 26.575C254.971 27.425 254.246 28.65 254.246 30.25C254.246 31.8 254.796 33 255.896 33.85C256.996 34.7 259.571 35.6 263.621 36.55C267.721 37.45 270.846 38.775 272.996 40.525C275.146 42.275 276.221 44.725 276.221 47.875C276.221 51.025 274.771 53.6 271.871 55.6C268.971 57.55 265.396 58.525 261.146 58.525C256.946 58.525 253.571 58 251.021 56.95C248.521 55.85 247.271 54.425 247.271 52.675C247.271 50.925 248.096 49.65 249.746 48.85C250.446 50.2 251.796 51.35 253.796 52.3C255.796 53.25 258.296 53.725 261.296 53.725C264.296 53.725 266.571 53.175 268.121 52.075C269.721 50.975 270.521 49.625 270.521 48.025C270.521 46.375 269.796 45.1 268.346 44.2C266.946 43.25 264.171 42.325 260.021 41.425C255.921 40.525 252.921 39.25 251.021 37.6C249.171 35.9 248.246 33.8 248.246 31.3ZM287.313 5.425H287.838C289.738 5.425 290.688 6.375 290.688 8.275V28.525C291.538 26.325 292.988 24.45 295.038 22.9C297.088 21.35 299.488 20.575 302.238 20.575C306.438 20.575 309.788 21.775 312.288 24.175C314.788 26.525 316.038 30.35 316.038 35.65V55.15C316.038 56.15 315.813 56.875 315.363 57.325C314.913 57.775 314.188 58 313.188 58H312.588C310.738 58 309.813 57.05 309.813 55.15V36.025C309.813 29.075 306.813 25.6 300.813 25.6C297.663 25.6 295.188 26.9 293.388 29.5C291.638 32.1 290.763 35.375 290.763 39.325V55.15C290.763 57.05 289.788 58 287.838 58H287.313C286.313 58 285.588 57.775 285.138 57.325C284.688 56.875 284.463 56.15 284.463 55.15V8.275C284.463 6.375 285.413 5.425 287.313 5.425Z" fill="white"/>
<path d="M69.28 67V77H67.84V67H69.28ZM68.66 65.08C68.3 65.08 68.0067 64.9733 67.78 64.76C67.5667 64.5333 67.46 64.24 67.46 63.88C67.46 63.52 67.5667 63.2333 67.78 63.02C68.0067 62.7933 68.3 62.68 68.66 62.68C69.02 62.68 69.3067 62.7933 69.52 63.02C69.7467 63.2333 69.86 63.52 69.86 63.88C69.86 64.24 69.7467 64.5333 69.52 64.76C69.3067 64.9733 69.02 65.08 68.66 65.08ZM73.9572 77V67H75.2172L75.3372 69.3L75.1172 69.1C75.3972 68.3 75.8572 67.72 76.4972 67.36C77.1372 66.9867 77.8439 66.8 78.6172 66.8C79.2972 66.8 79.9105 66.94 80.4572 67.22C81.0172 67.5 81.4639 67.92 81.7972 68.48C82.1305 69.0267 82.2972 69.7267 82.2972 70.58V77H80.8572V71.08C80.8572 69.9733 80.6239 69.1933 80.1572 68.74C79.6905 68.2867 79.1105 68.06 78.4172 68.06C77.9372 68.06 77.4639 68.18 76.9972 68.42C76.5305 68.66 76.1439 69.04 75.8372 69.56C75.5439 70.08 75.3972 70.76 75.3972 71.6V77H73.9572ZM86.8517 81.2V67H88.1117L88.2317 69.54L88.0517 69.28C88.2784 68.5333 88.7117 67.9333 89.3517 67.48C89.9917 67.0267 90.7384 66.8 91.5917 66.8C92.3917 66.8 93.1184 67.0067 93.7717 67.42C94.4251 67.8333 94.9451 68.4333 95.3317 69.22C95.7184 69.9933 95.9117 70.92 95.9117 72C95.9117 73.08 95.7117 74.0133 95.3117 74.8C94.9251 75.5733 94.3984 76.1667 93.7317 76.58C93.0651 76.9933 92.3317 77.2 91.5317 77.2C90.7184 77.2 90.0117 76.9867 89.4117 76.56C88.8117 76.1333 88.3784 75.58 88.1117 74.9L88.2917 74.62V81.2H86.8517ZM91.3717 75.94C92.3317 75.94 93.0851 75.5867 93.6317 74.88C94.1917 74.16 94.4717 73.2 94.4717 72C94.4717 70.8 94.1984 69.8467 93.6517 69.14C93.1184 68.42 92.3784 68.06 91.4317 68.06C90.8184 68.06 90.2717 68.2267 89.7917 68.56C89.3251 68.88 88.9584 69.3333 88.6917 69.92C88.4251 70.5067 88.2917 71.2 88.2917 72C88.2917 72.7867 88.4184 73.48 88.6717 74.08C88.9384 74.6667 89.2984 75.1267 89.7517 75.46C90.2184 75.78 90.7584 75.94 91.3717 75.94ZM103.322 77.2C102.695 77.2 102.115 77.08 101.582 76.84C101.049 76.5867 100.615 76.1933 100.282 75.66C99.962 75.1267 99.802 74.4333 99.802 73.58V67H101.242V73.2C101.242 74.12 101.435 74.8067 101.822 75.26C102.209 75.7133 102.829 75.94 103.682 75.94C104.069 75.94 104.435 75.8667 104.782 75.72C105.142 75.5733 105.455 75.36 105.722 75.08C106.002 74.7867 106.222 74.4267 106.382 74C106.542 73.5733 106.622 73.08 106.622 72.52V67H108.062V77H106.802L106.722 75.34C106.509 75.7533 106.235 76.1 105.902 76.38C105.582 76.66 105.202 76.8667 104.762 77C104.335 77.1333 103.855 77.2 103.322 77.2ZM114.798 64.18V74.26C114.798 74.7933 114.932 75.1933 115.198 75.46C115.465 75.7267 115.818 75.86 116.258 75.86C116.632 75.86 116.945 75.7933 117.198 75.66C117.465 75.5267 117.705 75.3467 117.918 75.12L118.398 76.32C118.105 76.6 117.765 76.82 117.378 76.98C116.992 77.1267 116.552 77.2 116.058 77.2C115.312 77.2 114.672 76.9933 114.138 76.58C113.618 76.1667 113.358 75.48 113.358 74.52V64.58L114.798 64.18ZM118.238 67V68.24H111.478V67H118.238ZM135.591 71V72.5H129.111V71H135.591ZM147.852 81.2V67H149.112L149.232 69.54L149.052 69.28C149.278 68.5333 149.712 67.9333 150.352 67.48C150.992 67.0267 151.738 66.8 152.592 66.8C153.392 66.8 154.118 67.0067 154.772 67.42C155.425 67.8333 155.945 68.4333 156.332 69.22C156.718 69.9933 156.912 70.92 156.912 72C156.912 73.08 156.712 74.0133 156.312 74.8C155.925 75.5733 155.398 76.1667 154.732 76.58C154.065 76.9933 153.332 77.2 152.532 77.2C151.718 77.2 151.012 76.9867 150.412 76.56C149.812 76.1333 149.378 75.58 149.112 74.9L149.292 74.62V81.2H147.852ZM152.372 75.94C153.332 75.94 154.085 75.5867 154.632 74.88C155.192 74.16 155.472 73.2 155.472 72C155.472 70.8 155.198 69.8467 154.652 69.14C154.118 68.42 153.378 68.06 152.432 68.06C151.818 68.06 151.272 68.2267 150.792 68.56C150.325 68.88 149.958 69.3333 149.692 69.92C149.425 70.5067 149.292 71.2 149.292 72C149.292 72.7867 149.418 73.48 149.672 74.08C149.938 74.6667 150.298 75.1267 150.752 75.46C151.218 75.78 151.758 75.94 152.372 75.94ZM160.922 77V67H162.122L162.302 68.76C162.542 68.1333 162.915 67.6533 163.422 67.32C163.929 66.9733 164.535 66.8 165.242 66.8C165.429 66.8 165.615 66.82 165.802 66.86C165.989 66.8867 166.149 66.9467 166.282 67.04L166.042 68.34C165.909 68.2733 165.755 68.2267 165.582 68.2C165.422 68.16 165.195 68.14 164.902 68.14C164.502 68.14 164.102 68.2733 163.702 68.54C163.315 68.7933 162.995 69.1733 162.742 69.68C162.489 70.1867 162.362 70.8067 162.362 71.54V77H160.922ZM173.186 66.8C174.093 66.8 174.893 67.0067 175.586 67.42C176.28 67.8333 176.826 68.4333 177.226 69.22C177.626 69.9933 177.826 70.92 177.826 72C177.826 73.08 177.626 74.0133 177.226 74.8C176.826 75.5733 176.28 76.1667 175.586 76.58C174.893 76.9933 174.093 77.2 173.186 77.2C172.293 77.2 171.493 76.9933 170.786 76.58C170.093 76.1667 169.546 75.5733 169.146 74.8C168.746 74.0133 168.546 73.08 168.546 72C168.546 70.92 168.746 69.9933 169.146 69.22C169.546 68.4333 170.093 67.8333 170.786 67.42C171.493 67.0067 172.293 66.8 173.186 66.8ZM173.186 68.04C172.533 68.04 171.966 68.2 171.486 68.52C171.006 68.84 170.633 69.2933 170.366 69.88C170.113 70.4667 169.986 71.1733 169.986 72C169.986 72.8133 170.113 73.52 170.366 74.12C170.633 74.7067 171.006 75.16 171.486 75.48C171.966 75.8 172.533 75.96 173.186 75.96C173.853 75.96 174.42 75.8 174.886 75.48C175.366 75.16 175.733 74.7067 175.986 74.12C176.253 73.52 176.386 72.8133 176.386 72C176.386 71.1733 176.253 70.4667 175.986 69.88C175.733 69.2933 175.366 68.84 174.886 68.52C174.42 68.2 173.853 68.04 173.186 68.04ZM185.729 66.8C186.395 66.8 186.982 66.9133 187.489 67.14C188.009 67.3533 188.449 67.66 188.809 68.06C189.169 68.4467 189.455 68.9133 189.669 69.46L188.309 70.12C188.122 69.4533 187.809 68.9467 187.369 68.6C186.929 68.24 186.369 68.06 185.689 68.06C185.049 68.06 184.489 68.22 184.009 68.54C183.542 68.8467 183.182 69.2933 182.929 69.88C182.675 70.4667 182.549 71.1733 182.549 72C182.549 72.8133 182.675 73.52 182.929 74.12C183.195 74.7067 183.562 75.16 184.029 75.48C184.509 75.7867 185.069 75.94 185.709 75.94C186.215 75.94 186.655 75.86 187.029 75.7C187.402 75.5267 187.709 75.28 187.949 74.96C188.189 74.64 188.355 74.2533 188.449 73.8L189.769 74.26C189.569 74.8733 189.282 75.4 188.909 75.84C188.535 76.28 188.075 76.62 187.529 76.86C186.995 77.0867 186.389 77.2 185.709 77.2C184.815 77.2 184.022 76.9933 183.329 76.58C182.635 76.1667 182.089 75.5733 181.689 74.8C181.302 74.0133 181.109 73.08 181.109 72C181.109 70.92 181.309 69.9933 181.709 69.22C182.109 68.4333 182.655 67.8333 183.349 67.42C184.042 67.0067 184.835 66.8 185.729 66.8ZM197.53 77.2C196.624 77.2 195.817 76.9933 195.11 76.58C194.417 76.1667 193.87 75.5733 193.47 74.8C193.07 74.0133 192.87 73.08 192.87 72C192.87 70.92 193.064 69.9933 193.45 69.22C193.85 68.4333 194.39 67.8333 195.07 67.42C195.764 67.0067 196.55 66.8 197.43 66.8C198.324 66.8 199.084 67 199.71 67.4C200.337 67.8 200.817 68.3467 201.15 69.04C201.484 69.7333 201.65 70.52 201.65 71.4C201.65 71.6133 201.644 71.8 201.63 71.96C201.617 72.12 201.604 72.26 201.59 72.38H193.81V71.1H200.95L200.21 71.26C200.21 70.58 200.09 70.0067 199.85 69.54C199.624 69.06 199.297 68.6933 198.87 68.44C198.457 68.1867 197.97 68.06 197.41 68.06C196.77 68.06 196.21 68.22 195.73 68.54C195.264 68.86 194.904 69.3133 194.65 69.9C194.397 70.4867 194.27 71.1867 194.27 72C194.27 72.8133 194.404 73.5133 194.67 74.1C194.937 74.6867 195.31 75.14 195.79 75.46C196.284 75.78 196.857 75.94 197.51 75.94C198.204 75.94 198.777 75.7933 199.23 75.5C199.697 75.1933 200.064 74.7933 200.33 74.3L201.47 74.96C201.23 75.4133 200.917 75.8133 200.53 76.16C200.157 76.4933 199.717 76.7533 199.21 76.94C198.704 77.1133 198.144 77.2 197.53 77.2ZM208.985 77.2C208.051 77.2 207.198 76.9933 206.425 76.58C205.651 76.1667 205.065 75.58 204.665 74.82L205.865 73.94C206.131 74.58 206.538 75.0733 207.085 75.42C207.645 75.7667 208.311 75.94 209.085 75.94C209.778 75.94 210.325 75.7933 210.725 75.5C211.138 75.2067 211.345 74.82 211.345 74.34C211.345 74.0333 211.251 73.76 211.065 73.52C210.878 73.2667 210.525 73.08 210.005 72.96L207.765 72.46C206.831 72.2467 206.165 71.9133 205.765 71.46C205.365 71.0067 205.165 70.44 205.165 69.76C205.165 69.2267 205.311 68.74 205.605 68.3C205.911 67.8467 206.345 67.4867 206.905 67.22C207.465 66.94 208.118 66.8 208.865 66.8C209.798 66.8 210.585 67 211.225 67.4C211.878 67.7867 212.358 68.34 212.665 69.06L211.485 69.84C211.271 69.2133 210.918 68.76 210.425 68.48C209.931 68.2 209.411 68.06 208.865 68.06C208.398 68.06 207.991 68.1333 207.645 68.28C207.298 68.4133 207.031 68.6067 206.845 68.86C206.671 69.1 206.585 69.38 206.585 69.7C206.585 70.0067 206.685 70.2933 206.885 70.56C207.098 70.8267 207.478 71.02 208.025 71.14L210.365 71.66C211.258 71.86 211.885 72.1667 212.245 72.58C212.605 72.9933 212.785 73.5133 212.785 74.14C212.785 75.0733 212.431 75.82 211.725 76.38C211.031 76.9267 210.118 77.2 208.985 77.2ZM220.043 77.2C219.11 77.2 218.257 76.9933 217.483 76.58C216.71 76.1667 216.123 75.58 215.723 74.82L216.923 73.94C217.19 74.58 217.597 75.0733 218.143 75.42C218.703 75.7667 219.37 75.94 220.143 75.94C220.837 75.94 221.383 75.7933 221.783 75.5C222.197 75.2067 222.403 74.82 222.403 74.34C222.403 74.0333 222.31 73.76 222.123 73.52C221.937 73.2667 221.583 73.08 221.063 72.96L218.823 72.46C217.89 72.2467 217.223 71.9133 216.823 71.46C216.423 71.0067 216.223 70.44 216.223 69.76C216.223 69.2267 216.37 68.74 216.663 68.3C216.97 67.8467 217.403 67.4867 217.963 67.22C218.523 66.94 219.177 66.8 219.923 66.8C220.857 66.8 221.643 67 222.283 67.4C222.937 67.7867 223.417 68.34 223.723 69.06L222.543 69.84C222.33 69.2133 221.977 68.76 221.483 68.48C220.99 68.2 220.47 68.06 219.923 68.06C219.457 68.06 219.05 68.1333 218.703 68.28C218.357 68.4133 218.09 68.6067 217.903 68.86C217.73 69.1 217.643 69.38 217.643 69.7C217.643 70.0067 217.743 70.2933 217.943 70.56C218.157 70.8267 218.537 71.02 219.083 71.14L221.423 71.66C222.317 71.86 222.943 72.1667 223.303 72.58C223.663 72.9933 223.843 73.5133 223.843 74.14C223.843 75.0733 223.49 75.82 222.783 76.38C222.09 76.9267 221.177 77.2 220.043 77.2ZM241.822 71V72.5H235.342V71H241.822ZM258.022 66.8C258.929 66.8 259.729 67.0067 260.422 67.42C261.116 67.8333 261.662 68.4333 262.062 69.22C262.462 69.9933 262.662 70.92 262.662 72C262.662 73.08 262.462 74.0133 262.062 74.8C261.662 75.5733 261.116 76.1667 260.422 76.58C259.729 76.9933 258.929 77.2 258.022 77.2C257.129 77.2 256.329 76.9933 255.622 76.58C254.929 76.1667 254.382 75.5733 253.982 74.8C253.582 74.0133 253.382 73.08 253.382 72C253.382 70.92 253.582 69.9933 253.982 69.22C254.382 68.4333 254.929 67.8333 255.622 67.42C256.329 67.0067 257.129 66.8 258.022 66.8ZM258.022 68.04C257.369 68.04 256.802 68.2 256.322 68.52C255.842 68.84 255.469 69.2933 255.202 69.88C254.949 70.4667 254.822 71.1733 254.822 72C254.822 72.8133 254.949 73.52 255.202 74.12C255.469 74.7067 255.842 75.16 256.322 75.48C256.802 75.8 257.369 75.96 258.022 75.96C258.689 75.96 259.256 75.8 259.722 75.48C260.202 75.16 260.569 74.7067 260.822 74.12C261.089 73.52 261.222 72.8133 261.222 72C261.222 71.1733 261.089 70.4667 260.822 69.88C260.569 69.2933 260.202 68.84 259.722 68.52C259.256 68.2 258.689 68.04 258.022 68.04ZM270.045 77.2C269.418 77.2 268.838 77.08 268.305 76.84C267.771 76.5867 267.338 76.1933 267.005 75.66C266.685 75.1267 266.525 74.4333 266.525 73.58V67H267.965V73.2C267.965 74.12 268.158 74.8067 268.545 75.26C268.931 75.7133 269.551 75.94 270.405 75.94C270.791 75.94 271.158 75.8667 271.505 75.72C271.865 75.5733 272.178 75.36 272.445 75.08C272.725 74.7867 272.945 74.4267 273.105 74C273.265 73.5733 273.345 73.08 273.345 72.52V67H274.785V77H273.525L273.445 75.34C273.231 75.7533 272.958 76.1 272.625 76.38C272.305 76.66 271.925 76.8667 271.485 77C271.058 77.1333 270.578 77.2 270.045 77.2ZM281.521 64.18V74.26C281.521 74.7933 281.654 75.1933 281.921 75.46C282.188 75.7267 282.541 75.86 282.981 75.86C283.354 75.86 283.668 75.7933 283.921 75.66C284.188 75.5267 284.428 75.3467 284.641 75.12L285.121 76.32C284.828 76.6 284.488 76.82 284.101 76.98C283.714 77.1267 283.274 77.2 282.781 77.2C282.034 77.2 281.394 76.9933 280.861 76.58C280.341 76.1667 280.081 75.48 280.081 74.52V64.58L281.521 64.18ZM284.961 67V68.24H278.201V67H284.961ZM288.254 81.2V67H289.514L289.634 69.54L289.454 69.28C289.681 68.5333 290.114 67.9333 290.754 67.48C291.394 67.0267 292.141 66.8 292.994 66.8C293.794 66.8 294.521 67.0067 295.174 67.42C295.827 67.8333 296.347 68.4333 296.734 69.22C297.121 69.9933 297.314 70.92 297.314 72C297.314 73.08 297.114 74.0133 296.714 74.8C296.327 75.5733 295.801 76.1667 295.134 76.58C294.467 76.9933 293.734 77.2 292.934 77.2C292.121 77.2 291.414 76.9867 290.814 76.56C290.214 76.1333 289.781 75.58 289.514 74.9L289.694 74.62V81.2H288.254ZM292.774 75.94C293.734 75.94 294.487 75.5867 295.034 74.88C295.594 74.16 295.874 73.2 295.874 72C295.874 70.8 295.601 69.8467 295.054 69.14C294.521 68.42 293.781 68.06 292.834 68.06C292.221 68.06 291.674 68.2267 291.194 68.56C290.727 68.88 290.361 69.3333 290.094 69.92C289.827 70.5067 289.694 71.2 289.694 72C289.694 72.7867 289.821 73.48 290.074 74.08C290.341 74.6667 290.701 75.1267 291.154 75.46C291.621 75.78 292.161 75.94 292.774 75.94ZM304.724 77.2C304.098 77.2 303.518 77.08 302.984 76.84C302.451 76.5867 302.018 76.1933 301.684 75.66C301.364 75.1267 301.204 74.4333 301.204 73.58V67H302.644V73.2C302.644 74.12 302.838 74.8067 303.224 75.26C303.611 75.7133 304.231 75.94 305.084 75.94C305.471 75.94 305.838 75.8667 306.184 75.72C306.544 75.5733 306.858 75.36 307.124 75.08C307.404 74.7867 307.624 74.4267 307.784 74C307.944 73.5733 308.024 73.08 308.024 72.52V67H309.464V77H308.204L308.124 75.34C307.911 75.7533 307.638 76.1 307.304 76.38C306.984 76.66 306.604 76.8667 306.164 77C305.738 77.1333 305.258 77.2 304.724 77.2ZM316.201 64.18V74.26C316.201 74.7933 316.334 75.1933 316.601 75.46C316.867 75.7267 317.221 75.86 317.661 75.86C318.034 75.86 318.347 75.7933 318.601 75.66C318.867 75.5267 319.107 75.3467 319.321 75.12L319.801 76.32C319.507 76.6 319.167 76.82 318.781 76.98C318.394 77.1267 317.954 77.2 317.461 77.2C316.714 77.2 316.074 76.9933 315.541 76.58C315.021 76.1667 314.761 75.48 314.761 74.52V64.58L316.201 64.18ZM319.641 67V68.24H312.881V67H319.641Z" fill="white"/>
<rect x="5.65518" y="27.3333" width="4.24138" height="4.24138" fill="#FFC400"/>
<rect width="4.24138" height="4.24138" transform="matrix(1 0 0 -1 5.65518 54.6667)" fill="#FFC400"/>
<rect x="12.2529" y="31.1035" width="3.29885" height="2.82759" fill="#FFC400"/>
<rect width="3.29885" height="2.82759" transform="matrix(1 0 0 -1 12.2529 50.8965)" fill="#FFC400"/>
<rect x="17.4368" y="27.3333" width="2.82759" height="2.82759" fill="#FFC400"/>
<rect width="2.82759" height="2.82759" transform="matrix(1 0 0 -1 17.4368 54.6667)" fill="#FFC400"/>
<rect width="2.82759" height="2.82759" transform="matrix(1 0 0 -1 21.2069 42.8851)" fill="#FFC400"/>
<rect x="15.5517" y="24.0345" width="1.88506" height="1.88506" fill="#FFC400"/>
<rect width="1.88506" height="1.88506" transform="matrix(1 0 0 -1 15.5517 57.9655)" fill="#FFC400"/>
<rect y="19.7931" width="6.12644" height="6.12644" fill="#FFC400"/>
<rect width="6.12644" height="6.12644" transform="matrix(1 0 0 -1 0 62.2069)" fill="#FFC400"/>
<rect x="2.82758" y="8.95403" width="8.95402" height="8.95402" fill="#FFC400"/>
<rect width="8.95402" height="8.95402" transform="matrix(1 0 0 -1 2.82758 73.046)" fill="#FFC400"/>
<rect x="13.1954" width="12.2529" height="12.2529" fill="#FFC400"/>
<rect width="12.2529" height="12.2529" transform="matrix(1 0 0 -1 13.1954 82)" fill="#FFC400"/>
<rect x="26.8621" y="3.77011" width="14.6092" height="14.6092" fill="#FFC400"/>
<rect width="14.6092" height="14.6092" transform="matrix(1 0 0 -1 26.8621 78.2299)" fill="#FFC400"/>
<rect width="6.5977" height="6.5977" transform="matrix(1 0 0 -1 31.1035 44.2989)" fill="#FFC400"/>
<rect width="4.24138" height="4.24138" transform="matrix(1 0 0 -1 25.4483 43.3563)" fill="#FFC400"/>
<rect x="34.4023" y="19.7931" width="16.4943" height="16.4943" fill="#FFC400"/>
<rect width="16.4943" height="16.4943" transform="matrix(1 0 0 -1 34.4023 62.2069)" fill="#FFC400"/>
</svg>
