<svg width="258" height="276" viewBox="0 0 258 276" fill="none" xmlns="http://www.w3.org/2000/svg">
<path d="M3.975 221.3C3.975 217.9 5.425 215.225 8.325 213.275C11.275 211.275 14.55 210.275 18.15 210.275C21.75 210.275 24.525 210.8 26.475 211.85C28.475 212.85 29.475 214.05 29.475 215.45C29.475 216.85 28.5 217.875 26.55 218.525C26.2 217.725 25.225 216.975 23.625 216.275C22.075 215.575 20.15 215.225 17.85 215.225C15.55 215.225 13.65 215.675 12.15 216.575C10.7 217.425 9.975 218.65 9.975 220.25C9.975 221.8 10.525 223 11.625 223.85C12.725 224.7 15.3 225.6 19.35 226.55C23.45 227.45 26.575 228.775 28.725 230.525C30.875 232.275 31.95 234.725 31.95 237.875C31.95 241.025 30.5 243.6 27.6 245.6C24.7 247.55 21.125 248.525 16.875 248.525C12.675 248.525 9.3 248 6.75 246.95C4.25 245.85 3 244.425 3 242.675C3 240.925 3.825 239.65 5.475 238.85C6.175 240.2 7.525 241.35 9.525 242.3C11.525 243.25 14.025 243.725 17.025 243.725C20.025 243.725 22.3 243.175 23.85 242.075C25.45 240.975 26.25 239.625 26.25 238.025C26.25 236.375 25.525 235.1 24.075 234.2C22.675 233.25 19.9 232.325 15.75 231.425C11.65 230.525 8.65 229.25 6.75 227.6C4.9 225.9 3.975 223.8 3.975 221.3ZM43.0418 195.425H43.5668C45.4668 195.425 46.4168 196.375 46.4168 198.275V218.525C47.2668 216.325 48.7168 214.45 50.7668 212.9C52.8168 211.35 55.2168 210.575 57.9668 210.575C62.1668 210.575 65.5168 211.775 68.0168 214.175C70.5168 216.525 71.7668 220.35 71.7668 225.65V245.15C71.7668 246.15 71.5418 246.875 71.0918 247.325C70.6418 247.775 69.9168 248 68.9168 248H68.3168C66.4668 248 65.5418 247.05 65.5418 245.15V226.025C65.5418 219.075 62.5418 215.6 56.5418 215.6C53.3918 215.6 50.9168 216.9 49.1168 219.5C47.3668 222.1 46.4918 225.375 46.4918 229.325V245.15C46.4918 247.05 45.5168 248 43.5668 248H43.0418C42.0418 248 41.3168 247.775 40.8668 247.325C40.4168 246.875 40.1918 246.15 40.1918 245.15V198.275C40.1918 196.375 41.1418 195.425 43.0418 195.425ZM95.6508 210.425C106.251 210.425 111.551 215.35 111.551 225.2V240.05C111.551 242.8 112.601 244.55 114.701 245.3C113.951 247.2 112.551 248.15 110.501 248.15C109.001 248.15 107.801 247.625 106.901 246.575C106.051 245.475 105.626 244.05 105.626 242.3C102.476 246.5 98.4008 248.6 93.4008 248.6C89.3508 248.6 86.1508 247.575 83.8008 245.525C81.5008 243.425 80.3508 240.625 80.3508 237.125C80.3508 233.575 81.7008 230.7 84.4008 228.5C87.1508 226.3 90.8508 225.2 95.5008 225.2C98.3008 225.2 100.651 225.5 102.551 226.1C104.101 226.65 105.026 227 105.326 227.15V223.85C105.326 220.8 104.551 218.65 103.001 217.4C101.451 216.1 99.1008 215.45 95.9508 215.45C91.5008 215.45 88.0508 217.15 85.6008 220.55C83.5008 220.25 82.4508 219.275 82.4508 217.625C82.4508 215.725 83.7508 214.05 86.3508 212.6C88.9508 211.15 92.0508 210.425 95.6508 210.425ZM105.326 231.95C102.176 230.55 99.0758 229.85 96.0258 229.85C92.9758 229.85 90.6258 230.5 88.9758 231.8C87.3258 233.1 86.5008 234.8 86.5008 236.9C86.5008 238.95 87.2008 240.6 88.6008 241.85C90.0508 243.05 92.1508 243.65 94.9008 243.65C97.7008 243.65 100.126 242.65 102.176 240.65C104.276 238.65 105.326 236.225 105.326 233.375V231.95ZM125.889 195.425H126.414C128.314 195.425 129.264 196.35 129.264 198.2V245.15C129.264 247.05 128.314 248 126.414 248H125.889C124.839 248 124.089 247.775 123.639 247.325C123.239 246.875 123.039 246.15 123.039 245.15V198.2C123.039 197.2 123.239 196.5 123.639 196.1C124.089 195.65 124.839 195.425 125.889 195.425ZM143.68 215.375C147.23 212.025 151.58 210.35 156.73 210.35C161.88 210.35 166.23 212.025 169.78 215.375C173.33 218.725 175.105 223.45 175.105 229.55C175.105 235.65 173.33 240.35 169.78 243.65C166.23 246.95 161.88 248.6 156.73 248.6C151.58 248.6 147.23 246.95 143.68 243.65C140.13 240.35 138.355 235.65 138.355 229.55C138.355 223.45 140.13 218.725 143.68 215.375ZM165.355 219.2C163.155 216.75 160.28 215.525 156.73 215.525C153.18 215.525 150.28 216.75 148.03 219.2C145.83 221.6 144.73 225.05 144.73 229.55C144.73 234 145.83 237.45 148.03 239.9C150.28 242.3 153.18 243.5 156.73 243.5C160.28 243.5 163.155 242.3 165.355 239.9C167.605 237.45 168.73 234 168.73 229.55C168.73 225.05 167.605 221.6 165.355 219.2ZM182.246 221.3C182.246 217.9 183.696 215.225 186.596 213.275C189.546 211.275 192.821 210.275 196.421 210.275C200.021 210.275 202.796 210.8 204.746 211.85C206.746 212.85 207.746 214.05 207.746 215.45C207.746 216.85 206.771 217.875 204.821 218.525C204.471 217.725 203.496 216.975 201.896 216.275C200.346 215.575 198.421 215.225 196.121 215.225C193.821 215.225 191.921 215.675 190.421 216.575C188.971 217.425 188.246 218.65 188.246 220.25C188.246 221.8 188.796 223 189.896 223.85C190.996 224.7 193.571 225.6 197.621 226.55C201.721 227.45 204.846 228.775 206.996 230.525C209.146 232.275 210.221 234.725 210.221 237.875C210.221 241.025 208.771 243.6 205.871 245.6C202.971 247.55 199.396 248.525 195.146 248.525C190.946 248.525 187.571 248 185.021 246.95C182.521 245.85 181.271 244.425 181.271 242.675C181.271 240.925 182.096 239.65 183.746 238.85C184.446 240.2 185.796 241.35 187.796 242.3C189.796 243.25 192.296 243.725 195.296 243.725C198.296 243.725 200.571 243.175 202.121 242.075C203.721 240.975 204.521 239.625 204.521 238.025C204.521 236.375 203.796 235.1 202.346 234.2C200.946 233.25 198.171 232.325 194.021 231.425C189.921 230.525 186.921 229.25 185.021 227.6C183.171 225.9 182.246 223.8 182.246 221.3ZM221.313 195.425H221.838C223.738 195.425 224.688 196.375 224.688 198.275V218.525C225.538 216.325 226.988 214.45 229.038 212.9C231.088 211.35 233.488 210.575 236.238 210.575C240.438 210.575 243.788 211.775 246.288 214.175C248.788 216.525 250.038 220.35 250.038 225.65V245.15C250.038 246.15 249.813 246.875 249.363 247.325C248.913 247.775 248.188 248 247.188 248H246.588C244.738 248 243.813 247.05 243.813 245.15V226.025C243.813 219.075 240.813 215.6 234.813 215.6C231.663 215.6 229.188 216.9 227.388 219.5C225.638 222.1 224.763 225.375 224.763 229.325V245.15C224.763 247.05 223.788 248 221.838 248H221.313C220.313 248 219.588 247.775 219.138 247.325C218.688 246.875 218.463 246.15 218.463 245.15V198.275C218.463 196.375 219.413 195.425 221.313 195.425Z" fill="white"/>
<path d="M3.28 261V271H1.84V261H3.28ZM2.66 259.08C2.3 259.08 2.00667 258.973 1.78 258.76C1.56667 258.533 1.46 258.24 1.46 257.88C1.46 257.52 1.56667 257.233 1.78 257.02C2.00667 256.793 2.3 256.68 2.66 256.68C3.02 256.68 3.30667 256.793 3.52 257.02C3.74667 257.233 3.86 257.52 3.86 257.88C3.86 258.24 3.74667 258.533 3.52 258.76C3.30667 258.973 3.02 259.08 2.66 259.08ZM7.95719 271V261H9.21719L9.33719 263.3L9.11719 263.1C9.39719 262.3 9.85719 261.72 10.4972 261.36C11.1372 260.987 11.8439 260.8 12.6172 260.8C13.2972 260.8 13.9105 260.94 14.4572 261.22C15.0172 261.5 15.4639 261.92 15.7972 262.48C16.1305 263.027 16.2972 263.727 16.2972 264.58V271H14.8572V265.08C14.8572 263.973 14.6239 263.193 14.1572 262.74C13.6905 262.287 13.1105 262.06 12.4172 262.06C11.9372 262.06 11.4639 262.18 10.9972 262.42C10.5305 262.66 10.1439 263.04 9.83719 263.56C9.54385 264.08 9.39719 264.76 9.39719 265.6V271H7.95719ZM20.8517 275.2V261H22.1117L22.2317 263.54L22.0517 263.28C22.2784 262.533 22.7117 261.933 23.3517 261.48C23.9917 261.027 24.7384 260.8 25.5917 260.8C26.3917 260.8 27.1184 261.007 27.7717 261.42C28.4251 261.833 28.9451 262.433 29.3317 263.22C29.7184 263.993 29.9117 264.92 29.9117 266C29.9117 267.08 29.7117 268.013 29.3117 268.8C28.9251 269.573 28.3984 270.167 27.7317 270.58C27.0651 270.993 26.3317 271.2 25.5317 271.2C24.7184 271.2 24.0117 270.987 23.4117 270.56C22.8117 270.133 22.3784 269.58 22.1117 268.9L22.2917 268.62V275.2H20.8517ZM25.3717 269.94C26.3317 269.94 27.0851 269.587 27.6317 268.88C28.1917 268.16 28.4717 267.2 28.4717 266C28.4717 264.8 28.1984 263.847 27.6517 263.14C27.1184 262.42 26.3784 262.06 25.4317 262.06C24.8184 262.06 24.2717 262.227 23.7917 262.56C23.3251 262.88 22.9584 263.333 22.6917 263.92C22.4251 264.507 22.2917 265.2 22.2917 266C22.2917 266.787 22.4184 267.48 22.6717 268.08C22.9384 268.667 23.2984 269.127 23.7517 269.46C24.2184 269.78 24.7584 269.94 25.3717 269.94ZM37.322 271.2C36.6954 271.2 36.1154 271.08 35.582 270.84C35.0487 270.587 34.6154 270.193 34.282 269.66C33.962 269.127 33.802 268.433 33.802 267.58V261H35.242V267.2C35.242 268.12 35.4354 268.807 35.822 269.26C36.2087 269.713 36.8287 269.94 37.682 269.94C38.0687 269.94 38.4354 269.867 38.782 269.72C39.142 269.573 39.4554 269.36 39.722 269.08C40.002 268.787 40.222 268.427 40.382 268C40.542 267.573 40.622 267.08 40.622 266.52V261H42.062V271H40.802L40.722 269.34C40.5087 269.753 40.2354 270.1 39.902 270.38C39.582 270.66 39.202 270.867 38.762 271C38.3354 271.133 37.8554 271.2 37.322 271.2ZM48.7984 258.18V268.26C48.7984 268.793 48.9318 269.193 49.1984 269.46C49.4651 269.727 49.8184 269.86 50.2584 269.86C50.6318 269.86 50.9451 269.793 51.1984 269.66C51.4651 269.527 51.7051 269.347 51.9184 269.12L52.3984 270.32C52.1051 270.6 51.7651 270.82 51.3784 270.98C50.9918 271.127 50.5518 271.2 50.0584 271.2C49.3118 271.2 48.6718 270.993 48.1384 270.58C47.6184 270.167 47.3584 269.48 47.3584 268.52V258.58L48.7984 258.18ZM52.2384 261V262.24H45.4784V261H52.2384ZM69.5911 265V266.5H63.1111V265H69.5911ZM81.8517 275.2V261H83.1117L83.2317 263.54L83.0517 263.28C83.2784 262.533 83.7117 261.933 84.3517 261.48C84.9917 261.027 85.7384 260.8 86.5917 260.8C87.3917 260.8 88.1184 261.007 88.7717 261.42C89.4251 261.833 89.9451 262.433 90.3317 263.22C90.7184 263.993 90.9117 264.92 90.9117 266C90.9117 267.08 90.7117 268.013 90.3117 268.8C89.9251 269.573 89.3984 270.167 88.7317 270.58C88.0651 270.993 87.3317 271.2 86.5317 271.2C85.7184 271.2 85.0117 270.987 84.4117 270.56C83.8117 270.133 83.3784 269.58 83.1117 268.9L83.2917 268.62V275.2H81.8517ZM86.3717 269.94C87.3317 269.94 88.0851 269.587 88.6317 268.88C89.1917 268.16 89.4717 267.2 89.4717 266C89.4717 264.8 89.1984 263.847 88.6517 263.14C88.1184 262.42 87.3784 262.06 86.4317 262.06C85.8184 262.06 85.2717 262.227 84.7917 262.56C84.3251 262.88 83.9584 263.333 83.6917 263.92C83.4251 264.507 83.2917 265.2 83.2917 266C83.2917 266.787 83.4184 267.48 83.6717 268.08C83.9384 268.667 84.2984 269.127 84.7517 269.46C85.2184 269.78 85.7584 269.94 86.3717 269.94ZM94.922 271V261H96.122L96.302 262.76C96.542 262.133 96.9154 261.653 97.422 261.32C97.9287 260.973 98.5354 260.8 99.242 260.8C99.4287 260.8 99.6154 260.82 99.802 260.86C99.9887 260.887 100.149 260.947 100.282 261.04L100.042 262.34C99.9087 262.273 99.7554 262.227 99.582 262.2C99.422 262.16 99.1954 262.14 98.902 262.14C98.502 262.14 98.102 262.273 97.702 262.54C97.3154 262.793 96.9954 263.173 96.742 263.68C96.4887 264.187 96.362 264.807 96.362 265.54V271H94.922ZM107.186 260.8C108.093 260.8 108.893 261.007 109.586 261.42C110.28 261.833 110.826 262.433 111.226 263.22C111.626 263.993 111.826 264.92 111.826 266C111.826 267.08 111.626 268.013 111.226 268.8C110.826 269.573 110.28 270.167 109.586 270.58C108.893 270.993 108.093 271.2 107.186 271.2C106.293 271.2 105.493 270.993 104.786 270.58C104.093 270.167 103.546 269.573 103.146 268.8C102.746 268.013 102.546 267.08 102.546 266C102.546 264.92 102.746 263.993 103.146 263.22C103.546 262.433 104.093 261.833 104.786 261.42C105.493 261.007 106.293 260.8 107.186 260.8ZM107.186 262.04C106.533 262.04 105.966 262.2 105.486 262.52C105.006 262.84 104.633 263.293 104.366 263.88C104.113 264.467 103.986 265.173 103.986 266C103.986 266.813 104.113 267.52 104.366 268.12C104.633 268.707 105.006 269.16 105.486 269.48C105.966 269.8 106.533 269.96 107.186 269.96C107.853 269.96 108.42 269.8 108.886 269.48C109.366 269.16 109.733 268.707 109.986 268.12C110.253 267.52 110.386 266.813 110.386 266C110.386 265.173 110.253 264.467 109.986 263.88C109.733 263.293 109.366 262.84 108.886 262.52C108.42 262.2 107.853 262.04 107.186 262.04ZM119.729 260.8C120.395 260.8 120.982 260.913 121.489 261.14C122.009 261.353 122.449 261.66 122.809 262.06C123.169 262.447 123.455 262.913 123.669 263.46L122.309 264.12C122.122 263.453 121.809 262.947 121.369 262.6C120.929 262.24 120.369 262.06 119.689 262.06C119.049 262.06 118.489 262.22 118.009 262.54C117.542 262.847 117.182 263.293 116.929 263.88C116.675 264.467 116.549 265.173 116.549 266C116.549 266.813 116.675 267.52 116.929 268.12C117.195 268.707 117.562 269.16 118.029 269.48C118.509 269.787 119.069 269.94 119.709 269.94C120.215 269.94 120.655 269.86 121.029 269.7C121.402 269.527 121.709 269.28 121.949 268.96C122.189 268.64 122.355 268.253 122.449 267.8L123.769 268.26C123.569 268.873 123.282 269.4 122.909 269.84C122.535 270.28 122.075 270.62 121.529 270.86C120.995 271.087 120.389 271.2 119.709 271.2C118.815 271.2 118.022 270.993 117.329 270.58C116.635 270.167 116.089 269.573 115.689 268.8C115.302 268.013 115.109 267.08 115.109 266C115.109 264.92 115.309 263.993 115.709 263.22C116.109 262.433 116.655 261.833 117.349 261.42C118.042 261.007 118.835 260.8 119.729 260.8ZM131.53 271.2C130.624 271.2 129.817 270.993 129.11 270.58C128.417 270.167 127.87 269.573 127.47 268.8C127.07 268.013 126.87 267.08 126.87 266C126.87 264.92 127.064 263.993 127.45 263.22C127.85 262.433 128.39 261.833 129.07 261.42C129.764 261.007 130.55 260.8 131.43 260.8C132.324 260.8 133.084 261 133.71 261.4C134.337 261.8 134.817 262.347 135.15 263.04C135.484 263.733 135.65 264.52 135.65 265.4C135.65 265.613 135.644 265.8 135.63 265.96C135.617 266.12 135.604 266.26 135.59 266.38H127.81V265.1H134.95L134.21 265.26C134.21 264.58 134.09 264.007 133.85 263.54C133.624 263.06 133.297 262.693 132.87 262.44C132.457 262.187 131.97 262.06 131.41 262.06C130.77 262.06 130.21 262.22 129.73 262.54C129.264 262.86 128.904 263.313 128.65 263.9C128.397 264.487 128.27 265.187 128.27 266C128.27 266.813 128.404 267.513 128.67 268.1C128.937 268.687 129.31 269.14 129.79 269.46C130.284 269.78 130.857 269.94 131.51 269.94C132.204 269.94 132.777 269.793 133.23 269.5C133.697 269.193 134.064 268.793 134.33 268.3L135.47 268.96C135.23 269.413 134.917 269.813 134.53 270.16C134.157 270.493 133.717 270.753 133.21 270.94C132.704 271.113 132.144 271.2 131.53 271.2ZM142.985 271.2C142.051 271.2 141.198 270.993 140.425 270.58C139.651 270.167 139.065 269.58 138.665 268.82L139.865 267.94C140.131 268.58 140.538 269.073 141.085 269.42C141.645 269.767 142.311 269.94 143.085 269.94C143.778 269.94 144.325 269.793 144.725 269.5C145.138 269.207 145.345 268.82 145.345 268.34C145.345 268.033 145.251 267.76 145.065 267.52C144.878 267.267 144.525 267.08 144.005 266.96L141.765 266.46C140.831 266.247 140.165 265.913 139.765 265.46C139.365 265.007 139.165 264.44 139.165 263.76C139.165 263.227 139.311 262.74 139.605 262.3C139.911 261.847 140.345 261.487 140.905 261.22C141.465 260.94 142.118 260.8 142.865 260.8C143.798 260.8 144.585 261 145.225 261.4C145.878 261.787 146.358 262.34 146.665 263.06L145.485 263.84C145.271 263.213 144.918 262.76 144.425 262.48C143.931 262.2 143.411 262.06 142.865 262.06C142.398 262.06 141.991 262.133 141.645 262.28C141.298 262.413 141.031 262.607 140.845 262.86C140.671 263.1 140.585 263.38 140.585 263.7C140.585 264.007 140.685 264.293 140.885 264.56C141.098 264.827 141.478 265.02 142.025 265.14L144.365 265.66C145.258 265.86 145.885 266.167 146.245 266.58C146.605 266.993 146.785 267.513 146.785 268.14C146.785 269.073 146.431 269.82 145.725 270.38C145.031 270.927 144.118 271.2 142.985 271.2ZM154.043 271.2C153.11 271.2 152.257 270.993 151.483 270.58C150.71 270.167 150.123 269.58 149.723 268.82L150.923 267.94C151.19 268.58 151.597 269.073 152.143 269.42C152.703 269.767 153.37 269.94 154.143 269.94C154.837 269.94 155.383 269.793 155.783 269.5C156.197 269.207 156.403 268.82 156.403 268.34C156.403 268.033 156.31 267.76 156.123 267.52C155.937 267.267 155.583 267.08 155.063 266.96L152.823 266.46C151.89 266.247 151.223 265.913 150.823 265.46C150.423 265.007 150.223 264.44 150.223 263.76C150.223 263.227 150.37 262.74 150.663 262.3C150.97 261.847 151.403 261.487 151.963 261.22C152.523 260.94 153.177 260.8 153.923 260.8C154.857 260.8 155.643 261 156.283 261.4C156.937 261.787 157.417 262.34 157.723 263.06L156.543 263.84C156.33 263.213 155.977 262.76 155.483 262.48C154.99 262.2 154.47 262.06 153.923 262.06C153.457 262.06 153.05 262.133 152.703 262.28C152.357 262.413 152.09 262.607 151.903 262.86C151.73 263.1 151.643 263.38 151.643 263.7C151.643 264.007 151.743 264.293 151.943 264.56C152.157 264.827 152.537 265.02 153.083 265.14L155.423 265.66C156.317 265.86 156.943 266.167 157.303 266.58C157.663 266.993 157.843 267.513 157.843 268.14C157.843 269.073 157.49 269.82 156.783 270.38C156.09 270.927 155.177 271.2 154.043 271.2ZM175.822 265V266.5H169.342V265H175.822ZM192.022 260.8C192.929 260.8 193.729 261.007 194.422 261.42C195.116 261.833 195.662 262.433 196.062 263.22C196.462 263.993 196.662 264.92 196.662 266C196.662 267.08 196.462 268.013 196.062 268.8C195.662 269.573 195.116 270.167 194.422 270.58C193.729 270.993 192.929 271.2 192.022 271.2C191.129 271.2 190.329 270.993 189.622 270.58C188.929 270.167 188.382 269.573 187.982 268.8C187.582 268.013 187.382 267.08 187.382 266C187.382 264.92 187.582 263.993 187.982 263.22C188.382 262.433 188.929 261.833 189.622 261.42C190.329 261.007 191.129 260.8 192.022 260.8ZM192.022 262.04C191.369 262.04 190.802 262.2 190.322 262.52C189.842 262.84 189.469 263.293 189.202 263.88C188.949 264.467 188.822 265.173 188.822 266C188.822 266.813 188.949 267.52 189.202 268.12C189.469 268.707 189.842 269.16 190.322 269.48C190.802 269.8 191.369 269.96 192.022 269.96C192.689 269.96 193.256 269.8 193.722 269.48C194.202 269.16 194.569 268.707 194.822 268.12C195.089 267.52 195.222 266.813 195.222 266C195.222 265.173 195.089 264.467 194.822 263.88C194.569 263.293 194.202 262.84 193.722 262.52C193.256 262.2 192.689 262.04 192.022 262.04ZM204.045 271.2C203.418 271.2 202.838 271.08 202.305 270.84C201.771 270.587 201.338 270.193 201.005 269.66C200.685 269.127 200.525 268.433 200.525 267.58V261H201.965V267.2C201.965 268.12 202.158 268.807 202.545 269.26C202.931 269.713 203.551 269.94 204.405 269.94C204.791 269.94 205.158 269.867 205.505 269.72C205.865 269.573 206.178 269.36 206.445 269.08C206.725 268.787 206.945 268.427 207.105 268C207.265 267.573 207.345 267.08 207.345 266.52V261H208.785V271H207.525L207.445 269.34C207.231 269.753 206.958 270.1 206.625 270.38C206.305 270.66 205.925 270.867 205.485 271C205.058 271.133 204.578 271.2 204.045 271.2ZM215.521 258.18V268.26C215.521 268.793 215.654 269.193 215.921 269.46C216.188 269.727 216.541 269.86 216.981 269.86C217.354 269.86 217.668 269.793 217.921 269.66C218.188 269.527 218.428 269.347 218.641 269.12L219.121 270.32C218.828 270.6 218.488 270.82 218.101 270.98C217.714 271.127 217.274 271.2 216.781 271.2C216.034 271.2 215.394 270.993 214.861 270.58C214.341 270.167 214.081 269.48 214.081 268.52V258.58L215.521 258.18ZM218.961 261V262.24H212.201V261H218.961ZM222.254 275.2V261H223.514L223.634 263.54L223.454 263.28C223.681 262.533 224.114 261.933 224.754 261.48C225.394 261.027 226.141 260.8 226.994 260.8C227.794 260.8 228.521 261.007 229.174 261.42C229.827 261.833 230.347 262.433 230.734 263.22C231.121 263.993 231.314 264.92 231.314 266C231.314 267.08 231.114 268.013 230.714 268.8C230.327 269.573 229.801 270.167 229.134 270.58C228.467 270.993 227.734 271.2 226.934 271.2C226.121 271.2 225.414 270.987 224.814 270.56C224.214 270.133 223.781 269.58 223.514 268.9L223.694 268.62V275.2H222.254ZM226.774 269.94C227.734 269.94 228.487 269.587 229.034 268.88C229.594 268.16 229.874 267.2 229.874 266C229.874 264.8 229.601 263.847 229.054 263.14C228.521 262.42 227.781 262.06 226.834 262.06C226.221 262.06 225.674 262.227 225.194 262.56C224.727 262.88 224.361 263.333 224.094 263.92C223.827 264.507 223.694 265.2 223.694 266C223.694 266.787 223.821 267.48 224.074 268.08C224.341 268.667 224.701 269.127 225.154 269.46C225.621 269.78 226.161 269.94 226.774 269.94ZM238.724 271.2C238.098 271.2 237.518 271.08 236.984 270.84C236.451 270.587 236.018 270.193 235.684 269.66C235.364 269.127 235.204 268.433 235.204 267.58V261H236.644V267.2C236.644 268.12 236.838 268.807 237.224 269.26C237.611 269.713 238.231 269.94 239.084 269.94C239.471 269.94 239.838 269.867 240.184 269.72C240.544 269.573 240.858 269.36 241.124 269.08C241.404 268.787 241.624 268.427 241.784 268C241.944 267.573 242.024 267.08 242.024 266.52V261H243.464V271H242.204L242.124 269.34C241.911 269.753 241.638 270.1 241.304 270.38C240.984 270.66 240.604 270.867 240.164 271C239.738 271.133 239.258 271.2 238.724 271.2ZM250.201 258.18V268.26C250.201 268.793 250.334 269.193 250.601 269.46C250.867 269.727 251.221 269.86 251.661 269.86C252.034 269.86 252.347 269.793 252.601 269.66C252.867 269.527 253.107 269.347 253.321 269.12L253.801 270.32C253.507 270.6 253.167 270.82 252.781 270.98C252.394 271.127 251.954 271.2 251.461 271.2C250.714 271.2 250.074 270.993 249.541 270.58C249.021 270.167 248.761 269.48 248.761 268.52V258.58L250.201 258.18ZM253.641 261V262.24H246.881V261H253.641Z" fill="white"/>
<rect x="87" y="58" width="9" height="9" fill="#FFC400"/>
<rect width="9" height="9" transform="matrix(1 0 0 -1 87 116)" fill="#FFC400"/>
<rect x="101" y="66" width="7" height="6" fill="#FFC400"/>
<rect width="7" height="6" transform="matrix(1 0 0 -1 101 108)" fill="#FFC400"/>
<rect x="112" y="58" width="6" height="6" fill="#FFC400"/>
<rect width="6" height="6" transform="matrix(1 0 0 -1 112 116)" fill="#FFC400"/>
<rect width="6" height="6" transform="matrix(1 0 0 -1 120 91)" fill="#FFC400"/>
<rect x="108" y="51" width="4" height="4" fill="#FFC400"/>
<rect width="4" height="4" transform="matrix(1 0 0 -1 108 123)" fill="#FFC400"/>
<rect x="75" y="42" width="13" height="13" fill="#FFC400"/>
<rect width="13" height="13" transform="matrix(1 0 0 -1 75 132)" fill="#FFC400"/>
<rect x="81" y="19" width="19" height="19" fill="#FFC400"/>
<rect width="19" height="19" transform="matrix(1 0 0 -1 81 155)" fill="#FFC400"/>
<rect x="103" width="26" height="26" fill="#FFC400"/>
<rect width="26" height="26" transform="matrix(1 0 0 -1 103 174)" fill="#FFC400"/>
<rect x="132" y="8" width="31" height="31" fill="#FFC400"/>
<rect width="31" height="31" transform="matrix(1 0 0 -1 132 166)" fill="#FFC400"/>
<rect width="14" height="14" transform="matrix(1 0 0 -1 141 94)" fill="#FFC400"/>
<rect width="9" height="9" transform="matrix(1 0 0 -1 129 92)" fill="#FFC400"/>
<rect x="148" y="42" width="35" height="35" fill="#FFC400"/>
<rect width="35" height="35" transform="matrix(1 0 0 -1 148 132)" fill="#FFC400"/>
</svg>
